# xmcd
#
# Track frame offsets:
#	150
#	19425
#	48210
#	70230
#	91097
#	115887
#	136077
#	163250
#
# Disc length: 2437 seconds
#
# Revision: 1
# Processed by: cddbd v1.5.2PL0 Copyright (c) Steve Scherf et al.
# Submitted via: EZCDAudioConverter 3.1.0.1
#
DISCID=65098308
DTITLE=한영애  - 1992
DYEAR=1992
DGENRE=Blues Rock
TTITLE0=말도 안돼
TTITLE1=부서진 밤 
TTITLE2=조율 
TTITLE3=멋진 그대여
TTITLE4=이별 못한 이별
TTITLE5=마음 깊은 곳에 그대로를
TTITLE6=이어도
TTITLE7=말도 안돼 (희망은 사람의 몫, Remake)
EXTD=
EXTT0=
EXTT1=
EXTT2=
EXTT3=
EXTT4=
EXTT5=
EXTT6=
EXTT7=
PLAYORDER=
